<svg preserveAspectRatio="none" width="100%" height="100%" overflow="visible" style="display: block;" viewBox="0 0 13 13" fill="none" xmlns="http://www.w3.org/2000/svg">
<g id="Frame" clip-path="url(#clip0_0_8)">
<g id="Vector">
</g>
<path id="Vector_2" d="M12.0138 5.62352L11.9564 5.38002H6.66402V7.61998H9.82617C9.49787 9.17896 7.97443 9.99959 6.73004 9.99959C5.82461 9.99959 4.87018 9.61873 4.23846 9.00656C3.90516 8.67842 3.63986 8.28776 3.45774 7.85695C3.27563 7.42615 3.18027 6.96365 3.17713 6.49594C3.17713 5.55242 3.60115 4.60865 4.21814 3.98785C4.83514 3.36705 5.76697 3.01971 6.69348 3.01971C7.75455 3.01971 8.515 3.58313 8.79937 3.84008L10.3911 2.25672C9.92418 1.84641 8.64145 0.8125 6.64219 0.8125C5.09971 0.8125 3.6207 1.40334 2.53957 2.48092C1.47266 3.54199 0.92041 5.07635 0.92041 6.5C0.92041 7.92365 1.44295 9.38133 2.47686 10.4508C3.5816 11.5913 5.14617 12.1875 6.75721 12.1875C8.22301 12.1875 9.61238 11.6132 10.6026 10.5711C11.5761 9.54535 12.0796 8.12602 12.0796 6.63813C12.0796 6.01174 12.0166 5.63977 12.0138 5.62352Z" fill="var(--fill-0, white)"/>
</g>
<defs>
<clipPath id="clip0_0_8">
<rect width="13" height="13" fill="white"/>
</clipPath>
</defs>
</svg>
